<svg xmlns="http://www.w3.org/2000/svg" viewBox="0 0 760 330" font-family="system-ui,-apple-system,Segoe UI,sans-serif" font-size="13">
<rect width="760" height="330" rx="14" fill="#0f172a"/>
<defs><marker id="a" markerWidth="8" markerHeight="8" refX="7" refY="4" orient="auto"><path d="M0,0 L8,4 L0,8 z" fill="#94a3b8"/></marker></defs>
<text x="380.0" y="34" text-anchor="middle" fill="#e2e8f0" font-size="15" font-weight="600">One change, every view stays in sync</text>
<rect x="30" y="70" width="150" height="70" rx="8" fill="#1e293b" stroke="#f472b6" stroke-width="1.5"/>
<text x="105.0" y="102.0" text-anchor="middle" fill="#e2e8f0" font-weight="600">Input</text>
<text x="105.0" y="120.0" text-anchor="middle" fill="#94a3b8" font-size="11.5">slider, option, drag</text>
<rect x="30" y="180" width="150" height="70" rx="8" fill="#1e293b" stroke="#fbbf24" stroke-width="1.5"/>
<text x="105.0" y="212.0" text-anchor="middle" fill="#e2e8f0" font-weight="600">Hover</text>
<text x="105.0" y="230.0" text-anchor="middle" fill="#94a3b8" font-size="11.5">previews an option</text>
<rect x="230" y="125" width="150" height="70" rx="8" fill="#1e293b" stroke="#f472b6" stroke-width="1.5"/>
<text x="305.0" y="157.0" text-anchor="middle" fill="#e2e8f0" font-weight="600">Spec patch</text>
<text x="305.0" y="175.0" text-anchor="middle" fill="#94a3b8" font-size="11.5">small JSON change</text>
<rect x="430" y="125" width="130" height="70" rx="8" fill="#1e293b" stroke="#f472b6" stroke-width="1.5"/>
<text x="495.0" y="157.0" text-anchor="middle" fill="#e2e8f0" font-weight="600">Render</text>
<text x="495.0" y="175.0" text-anchor="middle" fill="#94a3b8" font-size="11.5">once per frame</text>
<rect x="600" y="60" width="130" height="60" rx="8" fill="#1e293b" stroke="#34d399" stroke-width="1.5"/>
<text x="665.0" y="87.0" text-anchor="middle" fill="#e2e8f0" font-weight="600">Gallery tile</text>
<text x="665.0" y="105.0" text-anchor="middle" fill="#94a3b8" font-size="11.5">active poster</text>
<rect x="600" y="135" width="130" height="60" rx="8" fill="#1e293b" stroke="#34d399" stroke-width="1.5"/>
<text x="665.0" y="162.0" text-anchor="middle" fill="#e2e8f0" font-weight="600">Large view</text>
<text x="665.0" y="180.0" text-anchor="middle" fill="#94a3b8" font-size="11.5">settings stay live</text>
<rect x="600" y="210" width="130" height="60" rx="8" fill="#1e293b" stroke="#34d399" stroke-width="1.5"/>
<text x="665.0" y="237.0" text-anchor="middle" fill="#e2e8f0" font-weight="600">Floating preview</text>
<text x="665.0" y="255.0" text-anchor="middle" fill="#94a3b8" font-size="11.5">phones, zoomable</text>
<rect x="230" y="260" width="150" height="50" rx="8" fill="#1e293b" stroke="#a78bfa" stroke-width="1.5"/>
<text x="305.0" y="282.0" text-anchor="middle" fill="#e2e8f0" font-weight="600">Save / Share</text>
<text x="305.0" y="300.0" text-anchor="middle" fill="#94a3b8" font-size="11.5">exports at 2x</text>
<path d="M180 105 L228 150" stroke="#94a3b8" stroke-width="1.5" fill="none" marker-end="url(#a)"/>
<path d="M180 215 L228 175" stroke="#94a3b8" stroke-width="1.5" fill="none" marker-end="url(#a)"/>
<path d="M380 160 L428 160" stroke="#94a3b8" stroke-width="1.5" fill="none" marker-end="url(#a)"/>
<path d="M560 150 L598 100" stroke="#94a3b8" stroke-width="1.5" fill="none" marker-end="url(#a)"/>
<path d="M560 160 L598 165" stroke="#94a3b8" stroke-width="1.5" fill="none" marker-end="url(#a)"/>
<path d="M560 170 L598 235" stroke="#94a3b8" stroke-width="1.5" fill="none" marker-end="url(#a)"/>
<path d="M305 195 L305 258" stroke="#94a3b8" stroke-width="1.5" fill="none" marker-end="url(#a)"/>
</svg>